<?xml version="1.0" standalone="no"?>
<!DOCTYPE svg PUBLIC "-//W3C//DTD SVG 20010904//EN" "http://www.w3.org/TR/2001/REC-SVG-20010904/DTD/svg10.dtd">
<!-- Created using Krita: https://krita.org -->
<svg xmlns="http://www.w3.org/2000/svg" 
    xmlns:xlink="http://www.w3.org/1999/xlink"
    xmlns:krita="http://krita.org/namespaces/svg/krita"
    xmlns:sodipodi="http://sodipodi.sourceforge.net/DTD/sodipodi-0.dtd"
    width="86.4pt"
    height="86.4pt"
    viewBox="0 0 86.4 86.4">
<defs/>
<path id="shape0" transform="translate(21.4679074707031, 59.2808512478599)" fill="#731325" fill-rule="evenodd" stroke="#731325" stroke-width="0.1424" stroke-linecap="square" stroke-linejoin="bevel" d="M21.7397 9.0983L21.8677 24.5938C20.939 24.618 19.9754 24.1802 18.9768 23.2805C17.9782 22.3809 12.0446 15.593 1.17575 2.91691C-0.883126 -0.00322107 -0.238001 -0.730835 3.11112 0.734066C8.13481 2.93142 18.1724 8.44345 19.9701 8.76684C21.7677 9.09022 21.7763 9.09022 21.7397 9.0983Z" sodipodi:nodetypes="cczczcc"/><path id="shape1" transform="translate(43.3197031249997, 59.7675682322614)" fill="#ea7a84" fill-rule="evenodd" stroke="#ea7a84" stroke-width="0.1424" stroke-linecap="square" stroke-linejoin="bevel" d="M0 8.56938L0.0950625 24.0965C1.29675 24.3152 2.72512 23.4963 4.38019 21.64C6.03525 19.7836 11.321 13.8679 20.2373 3.89276C23.2038 0.0981784 22.553 -0.922243 18.2849 0.831493C11.8828 3.4621 3.9195 8.26932 2.21934 8.46677C0.519187 8.66422 0.513703 8.66422 0 8.56938Z" sodipodi:nodetypes="cczczcc"/><path id="shape15" transform="translate(43.1097700438999, 1.91958757218455)" fill="#b12131" fill-rule="evenodd" stroke-opacity="0" stroke="#000000" stroke-width="0" stroke-linecap="square" stroke-linejoin="bevel" d="M0.265699 3.72153C1.32601 0.141506 3.3601 -0.855594 6.36798 0.73023C10.8798 3.10897 9.60742 7.98771 5.12851 10.8857C2.14257 12.8177 0.437542 14.133 0.0134174 14.8316C-0.0353326 14.7964 0.0487612 11.093 0.265699 3.72153Z" sodipodi:nodetypes="czzcc"/><path id="shape16" transform="matrix(-1 0 0 1 43.1302299561001 1.91958757218455)" fill="#b12131" fill-rule="evenodd" stroke-opacity="0" stroke="#000000" stroke-width="0" stroke-linecap="square" stroke-linejoin="bevel" d="M0.265699 3.72153C1.32601 0.141506 3.3601 -0.855594 6.36798 0.73023C10.8798 3.10897 9.60742 7.98771 5.12851 10.8857C2.14257 12.8177 0.437542 14.133 0.0134174 14.8316C-0.0353326 14.7964 0.0487612 11.093 0.265699 3.72153Z" sodipodi:nodetypes="czzcc"/><path id="shape17" transform="translate(41.0897177029996, 5.60887567567563)" fill="#b12131" fill-rule="evenodd" stroke-opacity="0" stroke="#000000" stroke-width="0" stroke-linecap="square" stroke-linejoin="bevel" d="M1.81895 0L3.32258 5.2169L2.46427 6.91L0.0164151 6.65191C-0.109725 6.61771 0.491118 4.4004 1.81895 0Z" sodipodi:nodetypes="ccccc"/><path id="shape18" transform="translate(41.6509140624997, 5.57389425675671)" fill="#b12131" fill-rule="evenodd" stroke-opacity="0" stroke="#000000" stroke-width="0" stroke-linecap="square" stroke-linejoin="bevel" d="M1.73215 0L0 4.41699L1.43965 5.48664C1.51765 5.30681 1.61515 3.47793 1.73215 0Z" sodipodi:nodetypes="cccc"/><path id="shape2" transform="translate(41.3731249999997, 5.28379189189185)" fill="#b12131" fill-rule="evenodd" stroke="#b12131" stroke-width="0.1424" stroke-linecap="square" stroke-linejoin="bevel" d="M3.48075 0L0.281531 2.31033L0 7.79541L1.76962 10.2581L3.20287 8.45773C3.237 8.38518 3.32962 5.56593 3.48075 0Z" sodipodi:nodetypes="cccccc"/><path id="shape3" transform="translate(42.9643125, 19.5539180578958)" fill="#b12131" fill-rule="evenodd" stroke="#b12131" stroke-width="0.1424" stroke-linecap="square" stroke-linejoin="bevel" d="M0 23.0678L0.117 0.00806573C1.391 -0.101111 2.68856 0.898062 4.00969 3.00558C5.33081 5.11311 11.4441 13.6316 22.3494 28.5612C22.3494 28.564 14.8996 26.7328 0 23.0678Z" sodipodi:nodetypes="cczcc"/><path id="shape4" transform="translate(42.94725, 39.2801027027027)" fill="#b12131" fill-rule="evenodd" stroke="#b12131" stroke-width="0.1424" stroke-linecap="square" stroke-linejoin="bevel" d="M0 3.27737L23.7339 13.1385C24.0687 11.6543 23.0222 9.36016 20.5944 6.25623C18.1667 3.1523 15.8819 1.06689 13.7402 0C13.7207 0.0276396 9.14063 1.1201 0 3.27737Z" sodipodi:nodetypes="cczcc"/><path id="shape5" transform="translate(42.9301875, 42.6407054054054)" fill="#731325" fill-rule="evenodd" stroke="#731325" stroke-width="0.1424" stroke-linecap="square" stroke-linejoin="bevel" d="M0 0L23.6876 9.86528C23.582 11.098 22.4096 12.2326 20.1703 13.2691C17.9311 14.3056 16.7936 14.8591 16.7578 14.9296L3.77081 21.1651C3.73181 21.1623 2.47488 14.1073 0 0Z" sodipodi:nodetypes="cczccc"/><path id="shape6" transform="translate(42.9301875, 42.6800918918919)" fill="#731325" fill-rule="evenodd" stroke="#731325" stroke-width="0.1424" stroke-linecap="square" stroke-linejoin="bevel" d="M0 0L0.129188 22.3218C0.631313 22.5719 1.65344 22.299 3.19556 21.5029C4.73769 20.7069 6.51137 19.8052 8.51662 18.7977C8.51662 18.7977 5.67775 12.5318 0 0Z" sodipodi:nodetypes="cczcc"/><path id="shape7" transform="translate(42.8872343749997, 36.7241135135133)" fill="#b12131" fill-rule="evenodd" stroke="#b12131" stroke-width="0.1424" stroke-linecap="square" stroke-linejoin="bevel" d="M0.0603281 0L0 6.00126L19.0564 13.7189C19.0454 13.7231 12.7134 9.1501 0.0603281 0Z" sodipodi:nodetypes="cccc"/><path id="shape8" transform="translate(42.9725468749997, 27.2533851351349)" fill="none" stroke="#b12131" stroke-width="0.1424" stroke-linecap="square" stroke-linejoin="bevel" d="M0.0164531 0L0 15.5504L14.6524 21.1086L0.0164531 0" sodipodi:nodetypes="cccc"/><path id="shape9" transform="translate(43.0990312499997, 42.7990337837835)" fill="#731325" fill-rule="evenodd" stroke="#731325" stroke-width="0.1424" stroke-linecap="square" stroke-linejoin="bevel" d="M0 0L23.4329 9.62689L10.9468 13.6785C10.7079 13.7428 7.059 9.18327 0 0Z" sodipodi:nodetypes="cccc"/><path id="shape10" transform="translate(39.2657343749997, 19.5317566458248)" fill="#962034" fill-rule="evenodd" stroke="#962034" stroke-width="0.1424" stroke-linecap="square" stroke-linejoin="bevel" d="M3.92681 8.79316L3.83723 0.0167075C3.02311 -0.107671 2.19009 0.462397 1.33819 1.72691C0.486281 2.99142 0.0402188 4.44613 0 6.09104C0.04875 6.08585 1.35769 6.98656 3.92681 8.79316Z" sodipodi:nodetypes="cczcc"/><path id="shape11" transform="translate(19.608375, 42.8248108108108)" fill="#ea7a84" fill-rule="evenodd" stroke="#ea7a84" stroke-width="0.1424" stroke-linecap="square" stroke-linejoin="bevel" d="M23.4024 0L0 9.72432C0.118625 10.9612 1.2675 12.0861 3.44663 13.0991C5.62575 14.1121 11.3376 16.8968 20.5823 21.4532C22.5631 22.3667 23.5739 22.6023 23.6145 22.1601C23.6754 21.4967 23.6754 21.4967 23.4024 0Z" sodipodi:nodetypes="cczccc"/><path id="shape12" transform="translate(36.7694022461724, 19.6286626643615)" fill="#962034" fill-rule="evenodd" stroke="#962034" stroke-width="0.1424" stroke-linecap="square" stroke-linejoin="bevel" d="M6.30479 23.0898L6.39985 0.0839157C5.30947 -0.337589 3.90629 0.828804 2.19029 3.58309C0.474285 6.33738 -0.233402 7.52312 0.0672228 7.14032L0.583973 19.9969C0.827723 20.0052 2.73466 21.0361 6.30479 23.0898Z" sodipodi:nodetypes="cczccc"/><path id="shape13" transform="translate(19.4637625773994, 21.5430135135135)" fill="#962034" fill-rule="evenodd" stroke="#962034" stroke-width="0.1424" stroke-linecap="square" stroke-linejoin="bevel" d="M23.6738 21.1899L0.110487 30.8666C-0.282763 29.8508 0.373737 28.1641 2.07999 25.8064C3.78624 23.4488 9.97342 14.8466 20.6415 0C20.6789 0.0331676 21.6897 7.09648 23.6738 21.1899Z" sodipodi:nodetypes="cczcc"/>
</svg>
